<svg width="360" height="400" viewBox="0 0 360 400" fill="none" xmlns="http://www.w3.org/2000/svg">
<mask id="mask0_336_59" style="mask-type:luminance" maskUnits="userSpaceOnUse" x="18" y="48" width="327" height="283">
<path d="M319.296 273.637C285.713 321.728 244.808 339.393 196.582 326.632C148.357 313.87 101.743 289.824 56.7415 254.495C11.7398 219.165 6.971 175.574 42.435 123.721C77.899 71.8683 125.117 46.6808 184.089 48.1585C243.062 49.6362 288.735 75.5625 321.109 125.937C353.484 176.312 352.879 225.546 319.296 273.637Z" fill="white"/>
</mask>
<g mask="url(#mask0_336_59)">
<path d="M319.296 273.637C285.713 321.728 244.808 339.393 196.582 326.632C148.357 313.87 101.743 289.824 56.7415 254.495C11.7398 219.165 6.971 175.574 42.435 123.721C77.899 71.8683 125.117 46.6808 184.089 48.1585C243.062 49.6362 288.735 75.5625 321.109 125.937C353.484 176.312 352.879 225.546 319.296 273.637Z" stroke="#F47D53" stroke-width="8"/>
</g>
</svg>
